<svg width="129" height="129" viewBox="0 0 129 129" fill="none" xmlns="http://www.w3.org/2000/svg">
<path d="M59.125 91.375H69.875V69.875H91.375V59.125H69.875V37.625H59.125V59.125H37.625V69.875H59.125V91.375ZM64.5 118.25C57.0646 118.25 50.0771 116.861 43.5375 114.084C36.9979 111.218 31.3094 107.366 26.4719 102.528C21.6344 97.6906 17.7823 92.0021 14.9156 85.4625C12.1385 78.9229 10.75 71.9354 10.75 64.5C10.75 57.0646 12.1385 50.0771 14.9156 43.5375C17.7823 36.9979 21.6344 31.3094 26.4719 26.4719C31.3094 21.6344 36.9979 17.8271 43.5375 15.05C50.0771 12.1833 57.0646 10.75 64.5 10.75C71.9354 10.75 78.9229 12.1833 85.4625 15.05C92.0021 17.8271 97.6906 21.6344 102.528 26.4719C107.366 31.3094 111.173 36.9979 113.95 43.5375C116.817 50.0771 118.25 57.0646 118.25 64.5C118.25 71.9354 116.817 78.9229 113.95 85.4625C111.173 92.0021 107.366 97.6906 102.528 102.528C97.6906 107.366 92.0021 111.218 85.4625 114.084C78.9229 116.861 71.9354 118.25 64.5 118.25ZM64.5 107.5C76.5042 107.5 86.6719 103.334 95.0031 95.0031C103.334 86.6719 107.5 76.5042 107.5 64.5C107.5 52.4958 103.334 42.3281 95.0031 33.9969C86.6719 25.6656 76.5042 21.5 64.5 21.5C52.4958 21.5 42.3281 25.6656 33.9969 33.9969C25.6656 42.3281 21.5 52.4958 21.5 64.5C21.5 76.5042 25.6656 86.6719 33.9969 95.0031C42.3281 103.334 52.4958 107.5 64.5 107.5Z" fill="white"/>
</svg>
