<svg width="1920" height="872" viewBox="0 0 1920 872" fill="none" xmlns="http://www.w3.org/2000/svg">
<path fill-rule="evenodd" clip-rule="evenodd" d="M0 463.053V459.459C46.9 490.497 106.959 523.463 175.075 549.58C282.086 590.612 408.864 614.697 535.691 587.976C615.144 571.235 648.088 545.337 655.56 515.254C659.309 500.157 656.731 483.745 650.037 466.464C643.343 449.184 632.582 431.162 620.136 412.914C610.858 399.311 600.68 385.634 590.588 372.071C587.139 367.436 583.7 362.815 580.31 358.214C567.021 340.179 554.496 322.473 545.234 305.684C535.982 288.915 529.893 272.902 529.647 258.267C529.398 243.52 535.088 230.298 549.071 219.266C576.869 197.333 616.457 196.268 663.046 205.401C705.134 213.652 753.333 230.313 804.398 247.964L804.399 247.964L804.408 247.968C809.924 249.874 815.472 251.792 821.051 253.713C878.337 273.433 938.779 293.41 998.217 303.692C1057.65 313.973 1115.96 314.536 1168.99 295.531C1263.79 261.563 1307.41 183.918 1345.25 116.543L1345.26 116.532C1349.78 108.492 1354.21 100.598 1358.64 92.9422C1379.34 57.156 1400.04 26.4133 1428.73 10.8591C1457.58 -4.7787 1494.14 -4.90514 1546.14 19.5864C1598.03 44.0267 1642.87 75.3182 1683.52 105.433C1691.48 111.334 1699.28 117.185 1706.93 122.931L1706.94 122.938C1738.41 146.551 1767.47 168.364 1795.74 184.325C1830.85 204.151 1864.48 214.802 1899.62 208.677C1906.34 207.505 1913.13 205.717 1920 203.256V206.438C1913.32 208.771 1906.7 210.487 1900.13 211.632C1864.02 217.928 1829.65 206.923 1794.26 186.937C1765.81 170.871 1736.55 148.906 1705.07 125.281L1705.07 125.28L1705.05 125.265C1697.41 119.536 1689.65 113.708 1681.73 107.844C1641.13 77.7561 1596.47 46.6101 1544.86 22.3004C1493.36 -1.95805 1457.86 -1.522 1430.16 13.4965C1402.3 28.5985 1381.97 58.6058 1361.24 94.4445C1356.82 102.069 1352.4 109.951 1347.88 117.995C1310.09 185.314 1265.93 263.986 1170.01 298.355C1116.29 317.601 1057.41 316.976 997.705 306.648C938.002 296.32 877.351 276.266 820.074 256.549C814.498 254.629 808.954 252.713 803.446 250.809C752.328 233.14 704.338 216.553 662.469 208.345C616.043 199.244 577.631 200.553 550.929 221.621C537.662 232.088 532.414 244.429 532.646 258.217C532.88 272.118 538.69 287.612 547.86 304.234C557.019 320.836 569.44 338.404 582.725 356.434C586.091 361.002 589.512 365.6 592.949 370.218L592.964 370.239L592.967 370.243C603.069 383.818 613.299 397.566 622.614 411.223C635.105 429.537 646.017 447.781 652.834 465.38C659.651 482.978 662.425 500.058 658.471 515.977C650.537 547.924 615.856 574.151 536.309 590.911C408.736 617.79 281.348 593.542 174 552.381C106.475 526.49 46.8324 493.889 0 463.053Z" fill="url(#paint0_linear_2744_584)"/>
<path fill-rule="evenodd" clip-rule="evenodd" d="M0 489.997V486.402C46.9 517.44 106.959 550.406 175.075 576.524C282.086 617.555 408.864 641.64 535.691 614.919C615.144 598.179 648.088 572.281 655.56 542.197C659.309 527.1 656.731 510.688 650.037 493.407C643.343 476.127 632.582 458.105 620.136 439.857C610.858 426.254 600.68 412.577 590.588 399.014C587.139 394.379 583.7 389.758 580.31 385.157C567.021 367.122 554.496 349.416 545.234 332.627C535.982 315.859 529.893 299.845 529.647 285.211C529.398 270.464 535.088 257.242 549.071 246.209C576.869 224.277 616.457 223.211 663.046 232.344C705.134 240.595 753.333 257.256 804.398 274.907L804.399 274.908L804.408 274.911C809.924 276.818 815.472 278.736 821.051 280.656C878.337 300.376 938.779 320.354 998.217 330.635C1057.65 340.916 1115.96 341.479 1168.99 322.475C1263.79 288.507 1307.41 210.862 1345.25 143.486L1345.26 143.475C1349.78 135.435 1354.21 127.541 1358.64 119.886C1379.34 84.0994 1400.04 53.3566 1428.73 37.8025C1457.58 22.1647 1494.14 22.0382 1546.14 46.5298C1598.03 70.9701 1642.87 102.262 1683.52 132.377C1691.48 138.277 1699.28 144.129 1706.93 149.874L1706.94 149.881C1738.41 173.494 1767.47 195.307 1795.74 211.268C1830.85 231.095 1864.48 241.746 1899.62 235.62C1906.34 234.448 1913.13 232.661 1920 230.199V233.382C1913.32 235.714 1906.7 237.43 1900.13 238.575C1864.02 244.871 1829.65 233.866 1794.26 213.88C1765.81 197.814 1736.55 175.849 1705.07 152.224L1705.07 152.223L1705.05 152.209C1697.41 146.479 1689.65 140.652 1681.73 134.787C1641.13 104.699 1596.47 73.5535 1544.86 49.2438C1493.36 24.9853 1457.86 25.4214 1430.16 40.4398C1402.3 55.5419 1381.97 85.5491 1361.24 121.388C1356.82 129.013 1352.4 136.895 1347.88 144.938C1310.09 212.257 1265.93 290.929 1170.01 325.299C1116.29 344.545 1057.41 343.92 997.705 333.591C938.002 323.264 877.351 303.21 820.074 283.493C814.498 281.573 808.954 279.657 803.446 277.753C752.328 260.084 704.338 243.496 662.469 235.288C616.043 226.187 577.631 227.497 550.929 248.564C537.662 259.032 532.414 271.372 532.646 285.16C532.88 299.061 538.69 314.556 547.86 331.178C557.019 347.779 569.44 365.347 582.725 383.378C586.091 387.946 589.512 392.544 592.949 397.162L592.964 397.182L592.967 397.186C603.069 410.761 613.299 424.509 622.614 438.167C635.105 456.481 646.017 474.725 652.834 492.323C659.651 509.921 662.425 527.001 658.471 542.92C650.537 574.868 615.856 601.095 536.309 617.855C408.736 644.733 281.348 620.485 174 579.325C106.475 553.433 46.8324 520.832 0 489.997Z" fill="url(#paint1_linear_2744_584)"/>
<path fill-rule="evenodd" clip-rule="evenodd" d="M0 516.94V513.345C46.9 544.384 106.959 577.349 175.075 603.467C282.086 644.498 408.864 668.584 535.691 641.862C615.144 625.122 648.088 599.224 655.56 569.14C659.309 554.044 656.731 537.632 650.037 520.35C643.343 503.07 632.582 485.049 620.136 466.8C610.858 453.197 600.68 439.521 590.588 425.958C587.139 421.323 583.7 416.701 580.31 412.101C567.021 394.065 554.496 376.36 545.234 359.57C535.982 342.802 529.893 326.789 529.647 312.154C529.398 297.407 535.088 284.185 549.071 273.153C576.869 251.22 616.457 250.155 663.046 259.288C705.134 267.538 753.333 284.199 804.398 301.851L804.399 301.851L804.408 301.854C809.924 303.761 815.472 305.679 821.051 307.599C878.337 327.32 938.779 347.297 998.217 357.579C1057.65 367.86 1115.96 368.422 1168.99 349.418C1263.79 315.45 1307.41 237.805 1345.25 170.43L1345.26 170.419C1349.78 162.379 1354.21 154.485 1358.64 146.829C1379.34 111.043 1400.04 80.3 1428.73 64.7458C1457.58 49.108 1494.14 48.9816 1546.14 73.4731C1598.03 97.9134 1642.87 129.205 1683.52 159.32C1691.48 165.22 1699.28 171.072 1706.93 176.817L1706.94 176.825C1738.41 200.438 1767.47 222.25 1795.74 238.211C1830.85 258.038 1864.48 268.689 1899.62 262.563C1906.34 261.392 1913.13 259.604 1920 257.142V260.325C1913.32 262.657 1906.7 264.373 1900.13 265.519C1864.02 271.815 1829.65 260.81 1794.26 240.824C1765.81 224.757 1736.55 202.793 1705.07 179.167L1705.07 179.167L1705.05 179.152C1697.41 173.422 1689.65 167.595 1681.73 161.731C1641.13 131.643 1596.47 100.497 1544.86 76.1871C1493.36 51.9287 1457.86 52.3647 1430.16 67.3832C1402.3 82.4853 1381.97 112.492 1361.24 148.331C1356.82 155.956 1352.4 163.838 1347.88 171.882C1310.09 239.201 1265.93 317.873 1170.01 352.242C1116.29 371.488 1057.41 370.863 997.705 360.535C938.002 350.207 877.351 330.153 820.074 310.436C814.498 308.516 808.954 306.6 803.446 304.696C752.328 287.027 704.338 270.439 662.469 262.232C616.043 253.131 577.631 254.44 550.929 275.508C537.662 285.975 532.414 298.316 532.646 312.104C532.88 326.004 538.69 341.499 547.86 358.121C557.019 374.722 569.44 392.29 582.725 410.321C586.091 414.889 589.512 419.487 592.949 424.105L592.964 424.126L592.967 424.13C603.069 437.705 613.299 451.453 622.614 465.11C635.105 483.424 646.017 501.668 652.834 519.267C659.651 536.865 662.425 553.944 658.471 569.864C650.537 601.811 615.856 628.038 536.309 644.798C408.736 671.676 281.348 647.429 174 606.268C106.475 580.377 46.8324 547.776 0 516.94Z" fill="url(#paint2_linear_2744_584)"/>
<path fill-rule="evenodd" clip-rule="evenodd" d="M0 543.883V540.289C46.9 571.327 106.959 604.293 175.075 630.41C282.086 671.442 408.864 695.527 535.691 668.806C615.144 652.066 648.088 626.168 655.56 596.084C659.309 580.987 656.731 564.575 650.037 547.294C643.343 530.014 632.582 511.992 620.136 493.744C610.858 480.141 600.68 466.464 590.588 452.901C587.139 448.266 583.7 443.645 580.31 439.044C567.021 421.009 554.496 403.303 545.234 386.514C535.982 369.745 529.893 353.732 529.647 339.098C529.398 324.35 535.088 311.129 549.071 300.096C576.869 278.163 616.457 277.098 663.046 286.231C705.134 294.482 753.333 311.143 804.398 328.794L804.399 328.794L804.408 328.798C809.924 330.704 815.472 332.622 821.051 334.543C878.337 354.263 938.779 374.24 998.217 384.522C1057.65 394.803 1115.96 395.366 1168.99 376.361C1263.79 342.393 1307.41 264.749 1345.25 197.373L1345.26 197.362C1349.78 189.322 1354.21 181.428 1358.64 173.772C1379.34 137.986 1400.04 107.243 1428.73 91.6892C1457.58 76.0514 1494.14 75.9249 1546.14 100.416C1598.03 124.857 1642.87 156.148 1683.52 186.264C1691.48 192.164 1699.28 198.015 1706.93 203.761L1706.94 203.768C1738.41 227.381 1767.47 249.194 1795.74 265.155C1830.85 284.981 1864.48 295.633 1899.62 289.507C1906.34 288.335 1913.13 286.547 1920 284.086V287.268C1913.32 289.601 1906.7 291.317 1900.13 292.462C1864.02 298.758 1829.65 287.753 1794.26 267.767C1765.81 251.701 1736.55 229.736 1705.07 206.111L1705.07 206.11L1705.05 206.095C1697.41 200.366 1689.65 194.538 1681.73 188.674C1641.13 158.586 1596.47 127.44 1544.86 103.13C1493.36 78.872 1457.86 79.3081 1430.16 94.3265C1402.3 109.429 1381.97 139.436 1361.24 175.275C1356.82 182.899 1352.4 190.781 1347.88 198.825C1310.09 266.144 1265.93 344.816 1170.01 379.186C1116.29 398.431 1057.41 397.806 997.705 387.478C938.002 377.15 877.351 357.096 820.074 337.379C814.498 335.46 808.954 333.543 803.446 331.64C752.328 313.971 704.338 297.383 662.469 289.175C616.043 280.074 577.631 281.384 550.929 302.451C537.662 312.918 532.414 325.259 532.646 339.047C532.88 352.948 538.69 368.442 547.86 385.064C557.019 401.666 569.44 419.234 582.725 437.265C586.091 441.832 589.512 446.43 592.949 451.048L592.964 451.069L592.967 451.073C603.069 464.648 613.299 478.396 622.614 492.053C635.105 510.367 646.017 528.611 652.834 546.21C659.651 563.808 662.425 580.888 658.471 596.807C650.537 628.754 615.856 654.981 536.309 671.741C408.736 698.62 281.348 674.372 174 633.212C106.475 607.32 46.8324 574.719 0 543.883Z" fill="url(#paint3_linear_2744_584)"/>
<path fill-rule="evenodd" clip-rule="evenodd" d="M0 570.827V567.232C46.9 598.27 106.959 631.236 175.075 657.354C282.086 698.385 408.864 722.47 535.691 695.749C615.144 679.009 648.088 653.111 655.56 623.027C659.309 607.931 656.731 591.518 650.037 574.237C643.343 556.957 632.582 538.935 620.136 520.687C610.858 507.084 600.68 493.407 590.588 479.844C587.139 475.209 583.7 470.588 580.31 465.987C567.021 447.952 554.496 430.246 545.234 413.457C535.982 396.689 529.893 380.675 529.647 366.041C529.398 351.294 535.088 338.072 549.071 327.039C576.869 305.107 616.457 304.041 663.046 313.175C705.134 321.425 753.333 338.086 804.398 355.738L804.399 355.738L804.408 355.741C809.924 357.648 815.472 359.566 821.051 361.486C878.337 381.206 938.779 401.184 998.217 411.465C1057.65 421.747 1115.96 422.309 1168.99 403.305C1263.79 369.337 1307.41 291.692 1345.25 224.316L1345.26 224.305C1349.78 216.265 1354.21 208.372 1358.64 200.716C1379.34 164.929 1400.04 134.187 1428.73 118.633C1457.58 102.995 1494.14 102.868 1546.14 127.36C1598.03 151.8 1642.87 183.092 1683.52 213.207C1691.48 219.107 1699.28 224.959 1706.93 230.704L1706.94 230.712C1738.41 254.325 1767.47 276.137 1795.74 292.098C1830.85 311.925 1864.48 322.576 1899.62 316.45C1906.34 315.278 1913.13 313.491 1920 311.029V314.212C1913.32 316.544 1906.7 318.26 1900.13 319.405C1864.02 325.701 1829.65 314.696 1794.26 294.71C1765.81 278.644 1736.55 256.679 1705.07 233.054L1705.07 233.053L1705.05 233.039C1697.41 227.309 1689.65 221.482 1681.73 215.617C1641.13 185.53 1596.47 154.384 1544.86 130.074C1493.36 105.815 1457.86 106.251 1430.16 121.27C1402.3 136.372 1381.97 166.379 1361.24 202.218C1356.82 209.843 1352.4 217.725 1347.88 225.768C1310.09 293.087 1265.93 371.759 1170.01 406.129C1116.29 425.375 1057.41 424.75 997.705 414.421C938.002 404.094 877.351 384.04 820.074 364.323C814.498 362.403 808.954 360.487 803.446 358.583C752.328 340.914 704.338 324.326 662.469 316.118C616.043 307.017 577.631 308.327 550.929 329.394C537.662 339.862 532.414 352.202 532.646 365.99C532.88 379.891 538.69 395.386 547.86 412.008C557.019 428.609 569.44 446.177 582.725 464.208C586.091 468.776 589.512 473.374 592.949 477.992L592.964 478.012L592.967 478.016C603.069 491.592 613.299 505.339 622.614 518.997C635.105 537.311 646.017 555.555 652.834 573.153C659.651 590.751 662.425 607.831 658.471 623.75C650.537 655.698 615.856 681.925 536.309 698.685C408.736 725.563 281.348 701.315 174 660.155C106.475 634.263 46.8324 601.662 0 570.827Z" fill="url(#paint4_linear_2744_584)"/>
<path fill-rule="evenodd" clip-rule="evenodd" d="M0 597.77V594.175C46.9 625.214 106.959 658.179 175.075 684.297C282.086 725.328 408.864 749.414 535.691 722.692C615.144 705.952 648.088 680.054 655.56 649.971C659.309 634.874 656.731 618.462 650.037 601.181C643.343 583.9 632.582 565.879 620.136 547.63C610.858 534.028 600.68 520.351 590.588 506.788C587.139 502.153 583.7 497.531 580.31 492.931C567.021 474.895 554.496 457.19 545.234 440.4C535.982 423.632 529.893 407.619 529.647 392.984C529.398 378.237 535.088 365.015 549.071 353.983C576.869 332.05 616.457 330.985 663.046 340.118C705.134 348.369 753.333 365.029 804.398 382.681L804.399 382.681L804.408 382.684C809.924 384.591 815.472 386.509 821.051 388.429C878.337 408.15 938.779 428.127 998.217 438.409C1057.65 448.69 1115.96 449.252 1168.99 430.248C1263.79 396.28 1307.41 318.635 1345.25 251.26L1345.26 251.249C1349.78 243.209 1354.21 235.315 1358.64 227.659C1379.34 191.873 1400.04 161.13 1428.73 145.576C1457.58 129.938 1494.14 129.812 1546.14 154.303C1598.03 178.743 1642.87 210.035 1683.52 240.15C1691.48 246.05 1699.28 251.902 1706.93 257.647L1706.94 257.655C1738.41 281.268 1767.47 303.08 1795.74 319.042C1830.85 338.868 1864.48 349.519 1899.62 343.393C1906.34 342.222 1913.13 340.434 1920 337.972V341.155C1913.32 343.488 1906.7 345.204 1900.13 346.349C1864.02 352.645 1829.65 341.64 1794.26 321.654C1765.81 305.587 1736.55 283.623 1705.07 259.997L1705.07 259.997L1705.05 259.982C1697.41 254.252 1689.65 248.425 1681.73 242.561C1641.13 212.473 1596.47 181.327 1544.86 157.017C1493.36 132.759 1457.86 133.195 1430.16 148.213C1402.3 163.315 1381.97 193.323 1361.24 229.161C1356.82 236.786 1352.4 244.668 1347.88 252.712C1310.09 320.031 1265.93 398.703 1170.01 433.072C1116.29 452.318 1057.41 451.693 997.705 441.365C938.002 431.037 877.351 410.983 820.074 391.266C814.498 389.346 808.954 387.43 803.446 385.526C752.328 367.857 704.338 351.27 662.469 343.062C616.043 333.961 577.631 335.27 550.929 356.338C537.662 366.805 532.414 379.146 532.646 392.934C532.88 406.834 538.69 422.329 547.86 438.951C557.019 455.553 569.44 473.12 582.725 491.151C586.091 495.719 589.512 500.317 592.949 504.935L592.964 504.956L592.967 504.96C603.069 518.535 613.299 532.283 622.614 545.94C635.105 564.254 646.017 582.498 652.834 600.097C659.651 617.695 662.425 634.775 658.471 650.694C650.537 682.641 615.856 708.868 536.309 725.628C408.736 752.507 281.348 728.259 174 687.098C106.475 661.207 46.8324 628.606 0 597.77Z" fill="url(#paint5_linear_2744_584)"/>
<path fill-rule="evenodd" clip-rule="evenodd" d="M0 624.713V621.119C46.9 652.157 106.959 685.123 175.075 711.24C282.086 752.272 408.864 776.357 535.691 749.636C615.144 732.896 648.088 706.998 655.56 676.914C659.309 661.817 656.731 645.405 650.037 628.124C643.343 610.844 632.582 592.822 620.136 574.574C610.858 560.971 600.68 547.294 590.588 533.731C587.139 529.096 583.7 524.475 580.31 519.874C567.021 501.839 554.496 484.133 545.234 467.344C535.982 450.575 529.893 434.562 529.647 419.928C529.398 405.18 535.088 391.959 549.071 380.926C576.869 358.993 616.457 357.928 663.046 367.061C705.134 375.312 753.333 391.973 804.398 409.624L804.399 409.625L804.408 409.628C809.924 411.534 815.472 413.452 821.051 415.373C878.337 435.093 938.779 455.07 998.217 465.352C1057.65 475.633 1115.96 476.196 1168.99 457.191C1263.79 423.223 1307.41 345.579 1345.25 278.203L1345.26 278.192C1349.78 270.152 1354.21 262.258 1358.64 254.602C1379.34 218.816 1400.04 188.073 1428.73 172.519C1457.58 156.881 1494.14 156.755 1546.14 181.247C1598.03 205.687 1642.87 236.978 1683.52 267.094C1691.48 272.994 1699.28 278.846 1706.93 284.591L1706.94 284.598C1738.41 308.211 1767.47 330.024 1795.74 345.985C1830.85 365.812 1864.48 376.463 1899.62 370.337C1906.34 369.165 1913.13 367.377 1920 364.916V368.098C1913.32 370.431 1906.7 372.147 1900.13 373.292C1864.02 379.588 1829.65 368.583 1794.26 348.597C1765.81 332.531 1736.55 310.566 1705.07 286.941L1705.07 286.94L1705.05 286.925C1697.41 281.196 1689.65 275.368 1681.73 269.504C1641.13 239.416 1596.47 208.27 1544.86 183.961C1493.36 159.702 1457.86 160.138 1430.16 175.157C1402.3 190.259 1381.97 220.266 1361.24 256.105C1356.82 263.729 1352.4 271.611 1347.88 279.655C1310.09 346.974 1265.93 425.646 1170.01 460.016C1116.29 479.261 1057.41 478.636 997.705 468.308C938.002 457.98 877.351 437.926 820.074 418.209C814.498 416.29 808.954 414.373 803.446 412.47C752.328 394.801 704.338 378.213 662.469 370.005C616.043 360.904 577.631 362.214 550.929 383.281C537.662 393.748 532.414 406.089 532.646 419.877C532.88 433.778 538.69 449.272 547.86 465.895C557.019 482.496 569.44 500.064 582.725 518.095C586.091 522.662 589.512 527.26 592.949 531.878L592.964 531.899L592.967 531.903C603.069 545.478 613.299 559.226 622.614 572.883C635.105 591.197 646.017 609.441 652.834 627.04C659.651 644.638 662.425 661.718 658.471 677.637C650.537 709.585 615.856 735.812 536.309 752.571C408.736 779.45 281.348 755.202 174 714.042C106.475 688.15 46.8324 655.549 0 624.713Z" fill="url(#paint6_linear_2744_584)"/>
<path fill-rule="evenodd" clip-rule="evenodd" d="M0 651.657V648.062C46.9 679.1 106.959 712.066 175.075 738.184C282.086 779.215 408.864 803.301 535.691 776.579C615.144 759.839 648.088 733.941 655.56 703.857C659.309 688.761 656.731 672.348 650.037 655.067C643.343 637.787 632.582 619.765 620.136 601.517C610.858 587.914 600.68 574.237 590.588 560.674C587.139 556.04 583.7 551.418 580.31 546.818C567.021 528.782 554.496 511.076 545.234 494.287C535.982 477.519 529.893 461.505 529.647 446.871C529.398 432.124 535.088 418.902 549.071 407.869C576.869 385.937 616.457 384.871 663.046 394.005C705.134 402.255 753.333 418.916 804.398 436.568L804.399 436.568L804.408 436.571C809.924 438.478 815.472 440.396 821.051 442.316C878.337 462.036 938.779 482.014 998.217 492.295C1057.65 502.577 1115.96 503.139 1168.99 484.135C1263.79 450.167 1307.41 372.522 1345.25 305.146L1345.26 305.136C1349.78 297.095 1354.21 289.202 1358.64 281.546C1379.34 245.76 1400.04 215.017 1428.73 199.463C1457.58 183.825 1494.14 183.698 1546.14 208.19C1598.03 232.63 1642.87 263.922 1683.52 294.037C1691.48 299.937 1699.28 305.789 1706.93 311.534L1706.94 311.542C1738.41 335.155 1767.47 356.967 1795.74 372.928C1830.85 392.755 1864.48 403.406 1899.62 397.28C1906.34 396.108 1913.13 394.321 1920 391.859V395.042C1913.32 397.374 1906.7 399.09 1900.13 400.236C1864.02 406.531 1829.65 395.526 1794.26 375.541C1765.81 359.474 1736.55 337.509 1705.07 313.884L1705.07 313.883L1705.05 313.869C1697.41 308.139 1689.65 302.312 1681.73 296.447C1641.13 266.36 1596.47 235.214 1544.86 210.904C1493.36 186.645 1457.86 187.082 1430.16 202.1C1402.3 217.202 1381.97 247.209 1361.24 283.048C1356.82 290.673 1352.4 298.555 1347.88 306.599C1310.09 373.918 1265.93 452.589 1170.01 486.959C1116.29 506.205 1057.41 505.58 997.705 495.252C938.002 484.924 877.351 464.87 820.074 445.153C814.498 443.233 808.954 441.317 803.446 439.413C752.328 421.744 704.338 405.156 662.469 396.949C616.043 387.847 577.631 389.157 550.929 410.225C537.662 420.692 532.414 433.033 532.646 446.82C532.88 460.721 538.69 476.216 547.86 492.838C557.019 509.439 569.44 527.007 582.725 545.038C586.091 549.606 589.512 554.204 592.949 558.822L592.964 558.842L592.967 558.846C603.069 572.422 613.299 586.17 622.614 599.827C635.105 618.141 646.017 636.385 652.834 653.984C659.651 671.581 662.425 688.661 658.471 704.58C650.537 736.528 615.856 762.755 536.309 779.515C408.736 806.393 281.348 782.145 174 740.985C106.475 715.093 46.8324 682.492 0 651.657Z" fill="url(#paint7_linear_2744_584)"/>
<path fill-rule="evenodd" clip-rule="evenodd" d="M0 678.6V675.005C46.9 706.044 106.959 739.01 175.075 765.127C282.086 806.159 408.864 830.244 535.691 803.523C615.144 786.782 648.088 760.884 655.56 730.801C659.309 715.704 656.731 699.292 650.037 682.011C643.343 664.731 632.582 646.709 620.136 628.46C610.858 614.858 600.68 601.181 590.588 587.618C587.139 582.983 583.7 578.361 580.31 573.761C567.021 555.725 554.496 538.02 545.234 521.23C535.982 504.462 529.893 488.449 529.647 473.814C529.398 459.067 535.088 445.845 549.071 434.813C576.869 412.88 616.457 411.815 663.046 420.948C705.134 429.199 753.333 445.86 804.398 463.511L804.399 463.511L804.408 463.515C809.924 465.421 815.472 467.339 821.051 469.259C878.337 488.98 938.779 508.957 998.217 519.239C1057.65 529.52 1115.96 530.082 1168.99 511.078C1263.79 477.11 1307.41 399.465 1345.25 332.09L1345.26 332.079C1349.78 324.039 1354.21 316.145 1358.64 308.489C1379.34 272.703 1400.04 241.96 1428.73 226.406C1457.58 210.768 1494.14 210.642 1546.14 235.133C1598.03 259.574 1642.87 290.865 1683.52 320.98C1691.48 326.88 1699.28 332.732 1706.93 338.478L1706.94 338.485C1738.41 362.098 1767.47 383.911 1795.74 399.872C1830.85 419.698 1864.48 430.349 1899.62 424.223C1906.34 423.052 1913.13 421.264 1920 418.802V421.985C1913.32 424.318 1906.7 426.034 1900.13 427.179C1864.02 433.475 1829.65 422.47 1794.26 402.484C1765.81 386.417 1736.55 364.453 1705.07 340.828L1705.07 340.827L1705.05 340.812C1697.41 335.082 1689.65 329.255 1681.73 323.391C1641.13 293.303 1596.47 262.157 1544.86 237.847C1493.36 213.589 1457.86 214.025 1430.16 229.043C1402.3 244.145 1381.97 274.153 1361.24 309.991C1356.82 317.616 1352.4 325.498 1347.88 333.542C1310.09 400.861 1265.93 479.533 1170.01 513.902C1116.29 533.148 1057.41 532.523 997.705 522.195C938.002 511.867 877.351 491.813 820.074 472.096C814.498 470.176 808.954 468.26 803.446 466.356C752.328 448.687 704.338 432.1 662.469 423.892C616.043 414.791 577.631 416.1 550.929 437.168C537.662 447.635 532.414 459.976 532.646 473.764C532.88 487.665 538.69 503.159 547.86 519.781C557.019 536.383 569.44 553.95 582.725 571.981C586.091 576.549 589.512 581.147 592.949 585.765L592.964 585.786L592.967 585.79C603.069 599.365 613.299 613.113 622.614 626.77C635.105 645.084 646.017 663.328 652.834 680.927C659.651 698.525 662.425 715.605 658.471 731.524C650.537 763.471 615.856 789.698 536.309 806.458C408.736 833.337 281.348 809.089 174 767.928C106.475 742.037 46.8324 709.436 0 678.6Z" fill="url(#paint8_linear_2744_584)"/>
<path fill-rule="evenodd" clip-rule="evenodd" d="M0 705.543V701.949C46.9 732.987 106.959 765.953 175.075 792.071C282.086 833.102 408.864 857.187 535.691 830.466C615.144 813.726 648.088 787.828 655.56 757.744C659.309 742.647 656.731 726.235 650.037 708.954C643.343 691.674 632.582 673.652 620.136 655.404C610.858 641.801 600.68 628.124 590.588 614.561C587.139 609.926 583.7 605.305 580.31 600.704C567.021 582.669 554.496 564.963 545.234 548.174C535.982 531.405 529.893 515.392 529.647 500.758C529.398 486.01 535.088 472.789 549.071 461.756C576.869 439.824 616.457 438.758 663.046 447.891C705.134 456.142 753.333 472.803 804.398 490.454L804.399 490.455L804.408 490.458C809.924 492.364 815.472 494.283 821.051 496.203C878.337 515.923 938.779 535.9 998.217 546.182C1057.65 556.463 1115.96 557.026 1168.99 538.022C1263.79 504.053 1307.41 426.409 1345.25 359.033L1345.26 359.022C1349.78 350.982 1354.21 343.088 1358.64 335.432C1379.34 299.646 1400.04 268.903 1428.73 253.349C1457.58 237.712 1494.14 237.585 1546.14 262.077C1598.03 286.517 1642.87 317.808 1683.52 347.924C1691.48 353.824 1699.28 359.676 1706.93 365.421L1706.94 365.428C1738.41 389.041 1767.47 410.854 1795.74 426.815C1830.85 446.642 1864.48 457.293 1899.62 451.167C1906.34 449.995 1913.13 448.207 1920 445.746V448.928C1913.32 451.261 1906.7 452.977 1900.13 454.122C1864.02 460.418 1829.65 449.413 1794.26 429.427C1765.81 413.361 1736.55 391.396 1705.07 367.771L1705.07 367.77L1705.05 367.755C1697.41 362.026 1689.65 356.199 1681.73 350.334C1641.13 320.246 1596.47 289.1 1544.86 264.791C1493.36 240.532 1457.86 240.968 1430.16 255.987C1402.3 271.089 1381.97 301.096 1361.24 336.935C1356.82 344.56 1352.4 352.441 1347.88 360.485C1310.09 427.804 1265.93 506.476 1170.01 540.846C1116.29 560.091 1057.41 559.466 997.705 549.138C938.002 538.811 877.351 518.757 820.074 499.039C814.498 497.12 808.954 495.203 803.446 493.3C752.328 475.631 704.338 459.043 662.469 450.835C616.043 441.734 577.631 443.044 550.929 464.111C537.662 474.579 532.414 486.919 532.646 500.707C532.88 514.608 538.69 530.102 547.86 546.725C557.019 563.326 569.44 580.894 582.725 598.925C586.091 603.492 589.512 608.09 592.949 612.708L592.964 612.729L592.967 612.733C603.069 626.308 613.299 640.056 622.614 653.713C635.105 672.028 646.017 690.271 652.834 707.87C659.651 725.468 662.425 742.548 658.471 758.467C650.537 790.415 615.856 816.642 536.309 833.401C408.736 860.28 281.348 836.032 174 794.872C106.475 768.98 46.8324 736.379 0 705.543Z" fill="url(#paint9_linear_2744_584)"/>
<path fill-rule="evenodd" clip-rule="evenodd" d="M0 732.487V728.892C46.9 759.931 106.959 792.896 175.075 819.014C282.086 860.045 408.864 884.131 535.691 857.409C615.144 840.669 648.088 814.771 655.56 784.687C659.309 769.591 656.731 753.178 650.037 735.897C643.343 718.617 632.582 700.596 620.136 682.347C610.858 668.744 600.68 655.067 590.588 641.504C587.139 636.87 583.7 632.248 580.31 627.648C567.021 609.612 554.496 591.906 545.234 575.117C535.982 558.349 529.893 542.336 529.647 527.701C529.398 512.954 535.088 499.732 549.071 488.699C576.869 466.767 616.457 465.702 663.046 474.835C705.134 483.085 753.333 499.746 804.398 517.398L804.399 517.398L804.408 517.401C809.924 519.308 815.472 521.226 821.051 523.146C878.337 542.867 938.779 562.844 998.217 573.125C1057.65 583.407 1115.96 583.969 1168.99 564.965C1263.79 530.997 1307.41 453.352 1345.25 385.976L1345.26 385.966C1349.78 377.926 1354.21 370.032 1358.64 362.376C1379.34 326.59 1400.04 295.847 1428.73 280.293C1457.58 264.655 1494.14 264.528 1546.14 289.02C1598.03 313.46 1642.87 344.752 1683.52 374.867C1691.48 380.767 1699.28 386.619 1706.93 392.364L1706.94 392.372C1738.41 415.985 1767.47 437.797 1795.74 453.758C1830.85 473.585 1864.48 484.236 1899.62 478.11C1906.34 476.938 1913.13 475.151 1920 472.689V475.872C1913.32 478.204 1906.7 479.92 1900.13 481.066C1864.02 487.362 1829.65 476.356 1794.26 456.371C1765.81 440.304 1736.55 418.339 1705.07 394.714L1705.07 394.713L1705.05 394.699C1697.41 388.969 1689.65 383.142 1681.73 377.278C1641.13 347.19 1596.47 316.044 1544.86 291.734C1493.36 267.476 1457.86 267.912 1430.16 282.93C1402.3 298.032 1381.97 328.039 1361.24 363.878C1356.82 371.503 1352.4 379.385 1347.88 387.429C1310.09 454.748 1265.93 533.419 1170.01 567.789C1116.29 587.035 1057.41 586.41 997.705 576.082C938.002 565.754 877.351 545.7 820.074 525.983C814.498 524.063 808.954 522.147 803.446 520.243C752.328 502.574 704.338 485.986 662.469 477.779C616.043 468.677 577.631 469.987 550.929 491.055C537.662 501.522 532.414 513.863 532.646 527.651C532.88 541.551 538.69 557.046 547.86 573.668C557.019 590.269 569.44 607.837 582.725 625.868C586.091 630.436 589.512 635.034 592.949 639.652L592.964 639.673L592.967 639.676C603.069 653.252 613.299 667 622.614 680.657C635.105 698.971 646.017 717.215 652.834 734.814C659.651 752.411 662.425 769.491 658.471 785.41C650.537 817.358 615.856 843.585 536.309 860.345C408.736 887.223 281.348 862.975 174 821.815C106.475 795.924 46.8324 763.322 0 732.487Z" fill="url(#paint10_linear_2744_584)"/>
<defs>
<linearGradient id="paint0_linear_2744_584" x1="0" y1="301.116" x2="1920" y2="301.116" gradientUnits="userSpaceOnUse">
<stop stop-color="#BF53FE"/>
<stop offset="1" stop-color="#85FFC2"/>
</linearGradient>
<linearGradient id="paint1_linear_2744_584" x1="0" y1="328.059" x2="1920" y2="328.059" gradientUnits="userSpaceOnUse">
<stop stop-color="#BF53FE"/>
<stop offset="1" stop-color="#85FFC2"/>
</linearGradient>
<linearGradient id="paint2_linear_2744_584" x1="0" y1="355.002" x2="1920" y2="355.002" gradientUnits="userSpaceOnUse">
<stop stop-color="#BF53FE"/>
<stop offset="1" stop-color="#85FFC2"/>
</linearGradient>
<linearGradient id="paint3_linear_2744_584" x1="0" y1="381.946" x2="1920" y2="381.946" gradientUnits="userSpaceOnUse">
<stop stop-color="#BF53FE"/>
<stop offset="1" stop-color="#85FFC2"/>
</linearGradient>
<linearGradient id="paint4_linear_2744_584" x1="0" y1="408.889" x2="1920" y2="408.889" gradientUnits="userSpaceOnUse">
<stop stop-color="#BF53FE"/>
<stop offset="1" stop-color="#85FFC2"/>
</linearGradient>
<linearGradient id="paint5_linear_2744_584" x1="0" y1="435.832" x2="1920" y2="435.832" gradientUnits="userSpaceOnUse">
<stop stop-color="#BF53FE"/>
<stop offset="1" stop-color="#85FFC2"/>
</linearGradient>
<linearGradient id="paint6_linear_2744_584" x1="0" y1="462.776" x2="1920" y2="462.776" gradientUnits="userSpaceOnUse">
<stop stop-color="#BF53FE"/>
<stop offset="1" stop-color="#85FFC2"/>
</linearGradient>
<linearGradient id="paint7_linear_2744_584" x1="0" y1="489.719" x2="1920" y2="489.719" gradientUnits="userSpaceOnUse">
<stop stop-color="#BF53FE"/>
<stop offset="1" stop-color="#85FFC2"/>
</linearGradient>
<linearGradient id="paint8_linear_2744_584" x1="0" y1="516.662" x2="1920" y2="516.662" gradientUnits="userSpaceOnUse">
<stop stop-color="#BF53FE"/>
<stop offset="1" stop-color="#85FFC2"/>
</linearGradient>
<linearGradient id="paint9_linear_2744_584" x1="0" y1="543.606" x2="1920" y2="543.606" gradientUnits="userSpaceOnUse">
<stop stop-color="#BF53FE"/>
<stop offset="1" stop-color="#85FFC2"/>
</linearGradient>
<linearGradient id="paint10_linear_2744_584" x1="0" y1="570.549" x2="1920" y2="570.549" gradientUnits="userSpaceOnUse">
<stop stop-color="#BF53FE"/>
<stop offset="1" stop-color="#85FFC2"/>
</linearGradient>
</defs>
</svg>
