<svg width="1920" height="925" viewBox="0 0 1920 925" fill="none" xmlns="http://www.w3.org/2000/svg">
<path fill-rule="evenodd" clip-rule="evenodd" d="M0 920.486V918.42C134.151 883.401 226.245 810.961 262.937 759.185C288.099 723.68 330.125 695.571 396.389 688.681C462.615 681.795 553.037 696.103 675.089 745.336C979.93 868.302 1292.75 922.763 1410.09 922.763C1468.78 922.763 1529.25 916.142 1579.6 896.457C1629.92 876.78 1670.06 844.082 1688.28 791.933C1692.79 779.026 1693.1 763.11 1690.23 744.935C1687.36 726.769 1681.32 706.424 1673.2 684.707C1656.96 641.268 1632.45 592.476 1608.52 544.837L1608.45 544.708C1584.55 497.147 1561.23 450.729 1547.39 412.069C1540.46 392.722 1535.89 375.256 1534.82 360.523C1533.76 345.799 1536.18 333.651 1543.45 325.115C1549.2 318.354 1557.92 312.677 1568.9 307.919C1579.89 303.158 1593.21 299.292 1608.23 296.188C1638.27 289.981 1675.22 286.8 1714.21 285.651C1785.89 283.539 1864.55 288.293 1920 293.802V295.812C1864.6 290.3 1785.92 285.539 1714.27 287.65C1675.34 288.797 1638.51 291.973 1608.63 298.147C1593.69 301.234 1580.52 305.066 1569.7 309.755C1558.87 314.447 1550.45 319.972 1544.97 326.411C1538.19 334.375 1535.77 345.899 1536.82 360.378C1537.86 374.848 1542.37 392.117 1549.27 411.395C1563.07 449.938 1586.35 496.266 1610.28 543.894L1610.28 543.897L1610.3 543.939C1634.23 591.551 1658.79 640.446 1675.08 684.007C1683.22 705.79 1689.31 726.273 1692.21 744.623C1695.1 762.963 1694.83 779.25 1690.17 792.593C1671.7 845.445 1631.02 878.497 1580.33 898.32C1529.65 918.134 1468.9 924.763 1410.09 924.763C1292.43 924.763 979.35 870.224 674.34 747.191C552.452 698.023 462.374 683.831 396.596 690.67C330.854 697.506 289.37 725.346 264.569 760.341C227.549 812.579 134.867 885.403 0 920.486Z" fill="url(#paint0_linear_2694_755)"/>
<path fill-rule="evenodd" clip-rule="evenodd" d="M0 908.925V906.871C142.547 873.561 240.326 797.553 278.413 743.809C303.575 708.305 345.601 680.195 411.864 673.305C478.091 666.42 568.513 680.727 690.564 729.96C995.406 852.926 1308.23 907.387 1425.56 907.387C1484.26 907.387 1544.73 900.766 1595.07 881.081C1645.4 861.404 1685.53 828.706 1703.75 776.558C1708.26 763.651 1708.58 747.734 1705.71 729.559C1702.84 711.393 1696.8 691.049 1688.68 669.331C1672.44 625.892 1647.93 577.1 1623.99 529.461L1623.93 529.332C1600.03 481.771 1576.7 435.353 1562.86 396.693C1555.94 377.346 1551.36 359.88 1550.3 345.147C1549.23 330.423 1551.66 318.275 1558.92 309.739C1564.68 302.978 1573.4 297.301 1584.38 292.544C1595.37 287.783 1608.68 283.917 1623.7 280.813C1653.74 274.605 1690.7 271.424 1729.69 270.275C1794.93 268.353 1865.96 272.119 1920 276.965V278.973C1866 274.124 1794.96 270.353 1729.75 272.274C1690.81 273.422 1653.99 276.597 1624.11 282.771C1609.17 285.858 1595.99 289.69 1585.17 294.379C1574.34 299.071 1565.93 304.596 1560.45 311.035C1553.67 319 1551.24 330.523 1552.29 345.003C1553.34 359.472 1557.85 376.741 1564.75 396.019C1578.55 434.562 1601.82 480.89 1625.75 528.518L1625.76 528.521L1625.78 528.563C1649.7 576.175 1674.27 625.07 1690.55 668.631C1698.7 690.414 1704.78 710.897 1707.68 729.247C1710.58 747.587 1710.3 763.874 1705.64 777.217C1687.18 830.069 1646.5 863.121 1595.8 882.944C1545.13 902.758 1484.37 909.387 1425.56 909.387C1307.9 909.387 994.825 854.849 689.816 731.815C567.927 682.648 477.85 668.455 412.071 675.295C346.33 682.13 304.845 709.97 280.045 744.966C241.625 799.178 143.255 875.562 0 908.925Z" fill="url(#paint1_linear_2694_755)"/>
<path fill-rule="evenodd" clip-rule="evenodd" d="M0 896.947V894.905C150.947 863.654 254.438 784.1 293.888 728.434C319.05 692.929 361.076 664.819 427.34 657.93C493.566 651.044 583.989 665.352 706.04 714.584C1010.88 837.551 1323.7 892.012 1441.04 892.012C1499.73 892.012 1560.2 885.391 1610.55 865.705C1660.87 846.028 1701.01 813.33 1719.23 761.182C1723.74 748.275 1724.05 732.359 1721.18 714.183C1718.31 696.017 1712.27 675.673 1704.16 653.956C1687.91 610.516 1663.4 561.724 1639.47 514.086L1639.4 513.956C1615.5 466.395 1592.18 419.977 1578.34 381.317C1571.41 361.97 1566.84 344.505 1565.77 329.771C1564.71 315.048 1567.14 302.899 1574.4 294.363C1580.15 287.603 1588.87 281.925 1599.85 277.168C1610.84 272.407 1624.16 268.541 1639.18 265.437C1669.22 259.229 1706.17 256.048 1745.16 254.9C1804.35 253.156 1868.29 256.093 1920 260.271V262.277C1868.32 258.097 1804.38 255.156 1745.22 256.899C1706.29 258.046 1669.46 261.221 1639.58 267.396C1624.65 270.483 1611.47 274.314 1600.65 279.003C1589.82 283.696 1581.4 289.221 1575.92 295.66C1569.15 303.624 1566.72 315.147 1567.77 329.627C1568.81 344.097 1573.32 361.365 1580.22 380.643C1594.02 419.186 1617.3 465.514 1641.23 513.142L1641.23 513.146L1641.25 513.188C1665.18 560.799 1689.74 609.694 1706.03 653.255C1714.17 675.038 1720.26 695.522 1723.16 713.871C1726.06 732.212 1725.78 748.498 1721.12 761.842C1702.65 814.693 1661.97 847.745 1611.28 867.568C1560.6 887.383 1499.85 894.012 1441.04 894.012C1323.38 894.012 1010.3 839.473 705.292 716.439C583.403 667.272 493.326 653.08 427.547 659.919C361.805 666.754 320.321 694.595 295.52 729.59C255.732 785.733 151.648 865.655 0 896.947Z" fill="url(#paint2_linear_2694_755)"/>
<path fill-rule="evenodd" clip-rule="evenodd" d="M0 884.563V882.531C159.35 853.686 268.58 770.607 309.364 713.058C334.526 677.553 376.552 649.444 442.815 642.554C509.042 635.668 599.464 649.976 721.515 699.209C1026.36 822.175 1339.18 876.636 1456.52 876.636C1515.21 876.636 1575.68 870.015 1626.02 850.33C1676.35 830.652 1716.49 797.954 1734.7 745.806C1739.21 732.899 1739.53 716.983 1736.66 698.808C1733.79 680.642 1727.75 660.297 1719.63 638.58C1703.39 595.141 1678.88 546.348 1654.94 498.71L1654.88 498.58C1630.98 451.019 1607.66 404.602 1593.82 365.942C1586.89 346.595 1582.31 329.129 1581.25 314.396C1580.18 299.672 1582.61 287.524 1589.88 278.988C1595.63 272.227 1604.35 266.55 1615.33 261.792C1626.32 257.031 1639.63 253.165 1654.65 250.061C1684.69 243.853 1721.65 240.672 1760.64 239.524C1814.04 237.95 1871.33 240.188 1920 243.71V245.716C1871.35 242.192 1814.08 239.95 1760.7 241.523C1721.76 242.67 1684.94 245.845 1655.06 252.02C1640.12 255.107 1626.95 258.939 1616.12 263.627C1605.29 268.32 1596.88 273.845 1591.4 280.284C1584.62 288.248 1582.2 299.772 1583.24 314.251C1584.29 328.721 1588.8 345.99 1595.7 365.268C1609.5 403.81 1632.77 450.138 1656.71 497.766L1656.71 497.77L1656.73 497.812C1680.65 545.423 1705.22 594.319 1721.5 637.88C1729.65 659.662 1735.74 680.146 1738.63 698.496C1741.53 716.836 1741.25 733.123 1736.59 746.466C1718.13 799.318 1677.45 832.37 1626.75 852.192C1576.08 872.007 1515.32 878.636 1456.52 878.636C1338.85 878.636 1025.78 824.097 720.767 701.063C598.878 651.896 508.801 637.704 443.022 644.543C377.281 651.378 335.796 679.219 310.996 714.214C269.869 772.247 160.044 855.687 0 884.563Z" fill="url(#paint3_linear_2694_755)"/>
<path fill-rule="evenodd" clip-rule="evenodd" d="M0 871.782V869.759C167.754 843.662 282.748 757.076 324.84 697.682C350.001 662.177 392.027 634.068 458.291 627.178C524.517 620.292 614.94 634.6 736.991 683.833C1041.83 806.799 1354.65 861.26 1471.99 861.26C1530.68 861.26 1591.15 854.639 1641.5 834.954C1691.82 815.277 1731.96 782.579 1750.18 730.43C1754.69 717.523 1755 701.607 1752.13 683.432C1749.26 665.266 1743.23 644.921 1735.11 623.204C1718.87 579.765 1694.35 530.973 1670.42 483.334L1670.35 483.205C1646.45 435.644 1623.13 389.226 1609.29 350.566C1602.36 331.219 1597.79 313.753 1596.72 299.02C1595.66 284.296 1598.09 272.148 1605.35 263.612C1611.11 256.851 1619.82 251.174 1630.8 246.417C1641.79 241.656 1655.11 237.79 1670.13 234.686C1700.17 228.478 1737.13 225.297 1776.11 224.148C1823.96 222.738 1874.91 224.388 1920 227.279V229.283C1874.93 226.39 1823.99 224.738 1776.17 226.147C1737.24 227.294 1700.41 230.47 1670.54 236.644C1655.6 239.731 1642.42 243.563 1631.6 248.252C1620.77 252.944 1612.35 258.469 1606.87 264.908C1600.1 272.872 1597.67 284.396 1598.72 298.875C1599.77 313.345 1604.27 330.614 1611.17 349.892C1624.97 388.434 1648.25 434.763 1672.18 482.391L1672.18 482.394L1672.2 482.436C1696.13 530.048 1720.69 578.943 1736.98 622.504C1745.12 644.287 1751.21 664.77 1754.11 683.12C1757.01 701.46 1756.73 717.747 1752.07 731.09C1733.6 783.942 1692.92 816.994 1642.23 836.817C1591.55 856.631 1530.8 863.26 1471.99 863.26C1354.33 863.26 1041.25 808.721 736.243 685.688C614.354 636.52 524.277 622.328 458.498 629.167C392.757 636.003 351.272 663.843 326.471 698.838C284.032 758.724 168.44 845.663 0 871.782Z" fill="url(#paint4_linear_2694_755)"/>
<path fill-rule="evenodd" clip-rule="evenodd" d="M0 858.614V856.597C176.156 833.586 296.942 743.509 340.315 682.306C365.477 646.802 407.503 618.692 473.767 611.802C539.993 604.917 630.415 619.224 752.467 668.457C1057.31 791.423 1370.13 845.885 1487.47 845.885C1546.16 845.885 1606.63 839.264 1656.98 819.578C1707.3 799.901 1747.44 767.203 1765.66 715.055C1770.17 702.148 1770.48 686.232 1767.61 668.056C1764.74 649.89 1758.7 629.546 1750.58 607.828C1734.34 564.389 1709.83 515.597 1685.89 467.958L1685.83 467.826C1661.93 420.266 1638.61 373.849 1624.77 335.19C1617.84 315.843 1613.27 298.377 1612.2 283.644C1611.13 268.921 1613.56 256.772 1620.83 248.236C1626.58 241.475 1635.3 235.798 1646.28 231.041C1657.27 226.28 1670.59 222.414 1685.61 219.31C1715.65 213.102 1752.6 209.921 1791.59 208.772C1834.03 207.522 1878.93 208.679 1920 210.974V212.977C1878.95 210.68 1834.07 209.522 1791.65 210.771C1752.71 211.919 1715.89 215.094 1686.01 221.268C1671.07 224.356 1657.9 228.187 1647.07 232.876C1636.24 237.569 1627.83 243.093 1622.35 249.533C1615.57 257.497 1613.15 269.02 1614.19 283.5C1615.24 297.969 1619.75 315.238 1626.65 334.516C1640.45 373.059 1663.73 419.387 1687.66 467.015L1687.66 467.021L1687.68 467.06C1711.6 514.672 1736.17 563.567 1752.46 607.128C1760.6 628.911 1766.69 649.395 1769.58 667.744C1772.48 686.084 1772.21 702.371 1767.54 715.714C1749.08 768.566 1708.4 801.618 1657.7 821.441C1607.03 841.255 1546.27 847.885 1487.47 847.885C1369.81 847.885 1056.73 793.346 751.718 670.312C629.829 621.145 539.752 606.952 473.973 613.792C408.232 620.627 366.748 648.467 341.947 683.463C298.22 745.165 176.834 835.588 0 858.614Z" fill="url(#paint5_linear_2694_755)"/>
<path fill-rule="evenodd" clip-rule="evenodd" d="M0 845.063V843.052C184.556 823.463 311.158 729.909 355.79 666.931C380.952 631.426 422.977 603.316 489.241 596.427C555.468 589.541 645.89 603.849 767.941 653.081C1072.78 776.048 1385.6 830.509 1502.94 830.509C1561.63 830.509 1622.1 823.888 1672.45 804.202C1722.77 784.525 1762.91 751.827 1781.13 699.679C1785.64 686.772 1785.95 670.856 1783.08 652.68C1780.21 634.514 1774.18 614.17 1766.06 592.453C1749.82 549.013 1725.3 500.221 1701.37 452.583L1701.3 452.453C1677.4 404.892 1654.08 358.474 1640.24 319.814C1633.32 300.467 1628.74 283.002 1627.67 268.268C1626.61 253.545 1629.04 241.396 1636.3 232.861C1642.06 226.1 1650.77 220.422 1661.75 215.665C1672.74 210.904 1686.06 207.038 1701.08 203.934C1731.12 197.726 1768.08 194.545 1807.06 193.397C1844.23 192.301 1883.28 193.053 1920 194.798V196.8C1883.3 195.054 1844.27 194.301 1807.12 195.396C1768.19 196.543 1731.36 199.718 1701.49 205.893C1686.55 208.98 1673.37 212.811 1662.55 217.5C1651.72 222.193 1643.3 227.718 1637.82 234.157C1631.05 242.121 1628.62 253.644 1629.67 268.124C1630.72 282.594 1635.22 299.862 1642.12 319.14C1655.92 357.683 1679.2 404.011 1703.13 451.639L1703.13 451.643L1703.15 451.685C1727.08 499.296 1751.64 548.192 1767.93 591.752C1776.07 613.535 1782.16 634.019 1785.06 652.368C1787.96 670.709 1787.68 686.996 1783.02 700.339C1764.55 753.19 1723.88 786.242 1673.18 806.065C1622.5 825.88 1561.75 832.509 1502.94 832.509C1385.28 832.509 1072.2 777.97 767.193 654.936C645.304 605.769 555.227 591.577 489.448 598.416C423.707 605.251 382.222 633.092 357.422 668.087C312.43 731.573 185.226 825.464 0 845.063Z" fill="url(#paint6_linear_2694_755)"/>
<path fill-rule="evenodd" clip-rule="evenodd" d="M0 831.139V829.133C192.952 813.295 325.397 716.279 371.265 651.555C396.427 616.05 438.453 587.941 504.717 581.051C570.943 574.165 661.365 588.473 783.417 637.706C1088.26 760.672 1401.08 815.133 1518.42 815.133C1577.11 815.133 1637.58 808.512 1687.93 788.827C1738.25 769.15 1778.39 736.451 1796.61 684.303C1801.12 671.396 1801.43 655.48 1798.56 637.305C1795.69 619.139 1789.65 598.794 1781.53 577.077C1765.29 533.638 1740.78 484.846 1716.84 437.207L1716.78 437.077C1692.88 389.517 1669.56 343.099 1655.72 304.439C1648.79 285.092 1644.22 267.626 1643.15 252.893C1642.08 238.169 1644.51 226.021 1651.78 217.485C1657.53 210.724 1666.25 205.047 1677.23 200.289C1688.22 195.528 1701.54 191.662 1716.56 188.558C1746.6 182.35 1783.55 179.17 1822.54 178.021C1854.53 177.078 1887.91 177.503 1920 178.753V180.754C1887.93 179.504 1854.56 179.078 1822.6 180.02C1783.66 181.167 1746.84 184.343 1716.96 190.517C1702.02 193.604 1688.85 197.436 1678.02 202.125C1667.19 206.817 1658.78 212.342 1653.3 218.781C1646.52 226.745 1644.1 238.269 1645.14 252.748C1646.19 267.218 1650.7 284.487 1657.6 303.765C1671.4 342.307 1694.68 388.635 1718.61 436.263L1718.61 436.267L1718.63 436.309C1742.55 483.921 1767.12 532.816 1783.41 576.377C1791.55 598.159 1797.64 618.643 1800.54 636.993C1803.43 655.333 1803.16 671.62 1798.49 684.963C1780.03 737.815 1739.35 770.867 1688.65 790.689C1637.98 810.504 1577.22 817.133 1518.42 817.133C1400.76 817.133 1087.68 762.594 782.669 639.56C660.78 590.393 570.702 576.201 504.924 583.04C439.182 589.876 397.698 617.716 372.897 652.711C326.664 717.95 193.614 815.296 0 831.139Z" fill="url(#paint7_linear_2694_755)"/>
<path fill-rule="evenodd" clip-rule="evenodd" d="M0 816.847V814.843C201.343 803.087 339.656 702.619 386.741 636.179C411.903 600.674 453.929 572.565 520.192 565.675C586.419 558.789 676.841 573.097 798.892 622.33C1103.73 745.296 1416.55 799.757 1533.89 799.757C1592.58 799.757 1653.06 793.136 1703.4 773.451C1753.73 753.774 1793.86 721.076 1812.08 668.928C1816.59 656.021 1816.91 640.104 1814.04 621.929C1811.17 603.763 1805.13 583.418 1797.01 561.701C1780.77 518.262 1756.26 469.47 1732.32 421.831L1732.25 421.702C1708.36 374.141 1685.03 327.723 1671.19 289.063C1664.27 269.716 1659.69 252.25 1658.63 237.517C1657.56 222.793 1659.99 210.645 1667.25 202.109C1673.01 195.348 1681.72 189.671 1692.7 184.914C1703.69 180.153 1717.01 176.287 1732.03 173.183C1762.07 166.975 1799.03 163.794 1838.02 162.645C1864.89 161.853 1892.75 162.027 1920 162.843V164.844C1892.77 164.027 1864.93 163.853 1838.07 164.644C1799.14 165.791 1762.31 168.967 1732.44 175.141C1717.5 178.228 1704.32 182.06 1693.5 186.749C1682.67 191.441 1674.26 196.966 1668.78 203.405C1662 211.369 1659.57 222.893 1660.62 237.373C1661.67 251.842 1666.17 269.111 1673.08 288.389C1686.87 326.932 1710.15 373.26 1734.08 420.888L1734.08 420.891L1734.11 420.933C1758.03 468.545 1782.59 517.44 1798.88 561.001C1807.03 582.784 1813.11 603.267 1816.01 621.617C1818.91 639.957 1818.63 656.244 1813.97 669.587C1795.51 722.439 1754.83 755.491 1704.13 775.314C1653.45 795.128 1592.7 801.757 1533.89 801.757C1416.23 801.757 1103.15 747.219 798.144 624.185C676.255 575.017 586.178 560.825 520.399 567.664C454.658 574.5 413.173 602.34 388.373 637.336C340.917 704.298 201.997 805.088 0 816.847Z" fill="url(#paint8_linear_2694_755)"/>
<path fill-rule="evenodd" clip-rule="evenodd" d="M0 802.191V800.19C209.728 792.841 353.935 688.932 402.217 620.803C427.378 585.299 469.404 557.189 535.668 550.299C601.894 543.414 692.317 557.721 814.368 606.954C1119.21 729.92 1432.03 784.382 1549.37 784.382C1608.06 784.382 1668.53 777.761 1718.88 758.075C1769.2 738.398 1809.34 705.7 1827.56 653.552C1832.07 640.645 1832.38 624.729 1829.51 606.553C1826.64 588.387 1820.6 568.043 1812.48 546.326C1796.24 502.886 1771.73 454.094 1747.79 406.456L1747.73 406.326C1723.83 358.765 1700.51 312.347 1686.67 273.687C1679.74 254.34 1675.17 236.875 1674.1 222.141C1673.04 207.418 1675.46 195.269 1682.73 186.733C1688.48 179.973 1697.2 174.295 1708.18 169.538C1719.17 164.777 1732.49 160.911 1747.51 157.807C1777.55 151.599 1814.5 148.418 1853.49 147.269C1875.3 146.627 1897.75 146.62 1920 147.076V149.077C1897.77 148.62 1875.33 148.627 1853.55 149.269C1814.62 150.416 1777.79 153.591 1747.91 159.765C1732.97 162.853 1719.8 166.684 1708.98 171.373C1698.14 176.066 1689.73 181.59 1684.25 188.03C1677.47 195.994 1675.05 207.517 1676.1 221.997C1677.14 236.467 1681.65 253.735 1688.55 273.013C1702.35 311.556 1725.63 357.884 1749.56 405.512L1749.56 405.516L1749.58 405.558C1773.5 453.169 1798.07 502.064 1814.36 545.625C1822.5 567.408 1828.59 587.892 1831.49 606.241C1834.38 624.581 1834.11 640.868 1829.45 654.211C1810.98 707.063 1770.3 740.115 1719.61 759.938C1668.93 779.753 1608.18 786.382 1549.37 786.382C1431.71 786.382 1118.63 731.843 813.62 608.809C691.731 559.642 601.654 545.449 535.875 552.289C470.134 559.124 428.649 586.965 403.848 621.96C355.191 690.619 210.374 794.841 0 802.191Z" fill="url(#paint9_linear_2694_755)"/>
<path fill-rule="evenodd" clip-rule="evenodd" d="M0 787.178V785.178C218.106 782.56 368.232 675.22 417.692 605.428C442.854 569.923 484.88 541.813 551.144 534.924C617.37 528.038 707.792 542.346 829.844 591.578C1134.69 714.545 1447.51 769.006 1564.84 769.006C1623.54 769.006 1684.01 762.385 1734.35 742.7C1784.68 723.022 1824.81 690.324 1843.03 638.176C1847.54 625.269 1847.86 609.353 1844.99 591.177C1842.12 573.011 1836.08 552.667 1827.96 530.95C1811.72 487.511 1787.21 438.718 1763.27 391.08L1763.2 390.95C1739.31 343.389 1715.98 296.971 1702.14 258.312C1695.22 238.964 1690.64 221.499 1689.58 206.765C1688.51 192.042 1690.94 179.893 1698.2 171.358C1703.96 164.597 1712.68 158.92 1723.66 154.162C1734.65 149.401 1747.96 145.535 1762.98 142.431C1793.02 136.223 1829.98 133.042 1868.97 131.894C1885.72 131.4 1902.86 131.281 1920 131.46V133.46C1902.88 133.282 1885.76 133.4 1869.03 133.893C1830.09 135.04 1793.27 138.215 1763.39 144.39C1748.45 147.477 1735.27 151.308 1724.45 155.997C1713.62 160.69 1705.21 166.215 1699.73 172.654C1692.95 180.618 1690.52 192.141 1691.57 206.621C1692.62 221.091 1697.13 238.36 1704.03 257.637C1717.82 296.18 1741.1 342.508 1765.03 390.136L1765.04 390.14L1765.06 390.182C1788.98 437.793 1813.55 486.689 1829.83 530.249C1837.98 552.032 1844.06 572.516 1846.96 590.865C1849.86 609.206 1849.58 625.493 1844.92 638.836C1826.46 691.687 1785.78 724.739 1735.08 744.562C1684.4 764.377 1623.65 771.006 1564.84 771.006C1447.18 771.006 1134.1 716.467 829.095 593.433C707.206 544.266 617.129 530.074 551.35 536.913C485.609 543.748 444.125 571.589 419.324 606.584C369.482 676.914 218.744 784.56 0 787.178Z" fill="url(#paint10_linear_2694_755)"/>
<path fill-rule="evenodd" clip-rule="evenodd" d="M0 771.812V769.812C226.477 772.246 382.546 661.483 433.168 590.052C458.329 554.547 500.355 526.438 566.619 519.548C632.845 512.662 723.268 526.97 845.319 576.203C1150.16 699.169 1462.98 753.63 1580.32 753.63C1639.01 753.63 1699.48 747.009 1749.83 727.324C1800.15 707.647 1840.29 674.949 1858.51 622.8C1863.02 609.893 1863.33 593.977 1860.46 575.802C1857.59 557.636 1851.55 537.291 1843.43 515.574C1827.19 472.135 1802.68 423.343 1778.75 375.704L1778.68 375.575C1754.78 328.014 1731.46 281.596 1717.62 242.936C1710.69 223.589 1706.12 206.123 1705.05 191.39C1703.99 176.666 1706.41 164.518 1713.68 155.982C1719.43 149.221 1728.15 143.544 1739.13 138.787C1750.12 134.026 1763.44 130.16 1778.46 127.055C1808.5 120.848 1845.45 117.667 1884.44 116.518C1896.15 116.173 1908.05 116.011 1920 116.006V118.006C1908.07 118.011 1896.19 118.173 1884.5 118.517C1845.57 119.664 1808.74 122.84 1778.86 129.014C1763.92 132.101 1750.75 135.933 1739.93 140.622C1729.1 145.314 1720.68 150.839 1715.2 157.278C1708.42 165.242 1706 176.766 1707.05 191.245C1708.09 205.715 1712.6 222.984 1719.5 242.262C1733.3 280.805 1756.58 327.133 1780.51 374.761L1780.51 374.764L1780.53 374.806C1804.46 422.418 1829.02 471.313 1845.31 514.874C1853.45 536.657 1859.54 557.14 1862.44 575.49C1865.33 593.83 1865.06 610.117 1860.4 623.46C1841.93 676.312 1801.25 709.364 1750.56 729.187C1699.88 749.001 1639.13 755.63 1580.32 755.63C1462.66 755.63 1149.58 701.091 844.571 578.058C722.682 528.89 632.605 514.698 566.826 521.537C501.085 528.373 459.6 556.213 434.8 591.208C383.791 663.185 227.106 774.245 0 771.812Z" fill="url(#paint11_linear_2694_755)"/>
<path fill-rule="evenodd" clip-rule="evenodd" d="M0 756.096V754.095C234.838 761.901 396.877 647.723 448.644 574.676C473.806 539.171 515.832 511.062 582.096 504.172C648.322 497.286 738.744 511.594 860.796 560.827C1165.64 683.793 1478.46 738.254 1595.8 738.254C1654.49 738.254 1714.96 731.633 1765.3 711.948C1815.63 692.271 1855.77 659.573 1873.99 607.424C1878.49 594.518 1878.81 578.601 1875.94 560.426C1873.07 542.26 1867.03 521.915 1858.91 500.198C1842.67 456.759 1818.16 407.967 1794.22 360.328L1794.16 360.199C1770.26 312.638 1746.94 266.22 1733.1 227.56C1726.17 208.213 1721.6 190.747 1720.53 176.014C1719.46 161.29 1721.89 149.142 1729.16 140.606C1734.91 133.845 1743.63 128.168 1754.61 123.411C1765.6 118.65 1778.91 114.784 1793.94 111.68C1823.97 105.472 1860.93 102.291 1899.92 101.142C1906.56 100.946 1913.26 100.81 1920 100.727V102.727C1913.28 102.81 1906.6 102.946 1899.98 103.141C1861.04 104.288 1824.22 107.464 1794.34 113.638C1779.4 116.725 1766.23 120.557 1755.4 125.246C1744.57 129.938 1736.16 135.463 1730.68 141.902C1723.9 149.866 1721.48 161.39 1722.52 175.87C1723.57 190.339 1728.08 207.608 1734.98 226.886C1748.78 265.429 1772.06 311.757 1795.99 359.385L1795.99 359.388L1796.01 359.43C1819.93 407.042 1844.5 455.937 1860.78 499.498C1868.93 521.281 1875.02 541.764 1877.91 560.114C1880.81 578.454 1880.53 594.741 1875.87 608.084C1857.41 660.936 1816.73 693.988 1766.03 713.811C1715.36 733.625 1654.6 740.254 1595.8 740.254C1478.14 740.254 1165.06 685.716 860.047 562.682C738.159 513.514 648.081 499.322 582.303 506.161C516.561 512.997 475.077 540.837 450.276 575.833C398.116 649.433 235.459 763.9 0 756.096Z" fill="url(#paint12_linear_2694_755)"/>
<path fill-rule="evenodd" clip-rule="evenodd" d="M0 740.036V738.033C243.19 751.527 411.224 633.941 464.12 559.3C489.282 523.796 531.308 495.686 597.571 488.797C663.798 481.911 754.22 496.219 876.271 545.451C1181.11 668.417 1493.93 722.879 1611.27 722.879C1669.96 722.879 1730.43 716.258 1780.78 696.572C1831.1 676.895 1871.24 644.197 1889.46 592.049C1893.97 579.142 1894.28 563.226 1891.41 545.05C1888.55 526.884 1882.51 506.54 1874.39 484.823C1858.15 441.383 1833.63 392.591 1809.7 344.953L1809.63 344.823C1785.73 297.262 1762.41 250.844 1748.57 212.184C1741.65 192.837 1737.07 175.372 1736 160.638C1734.94 145.915 1737.37 133.766 1744.63 125.23C1750.39 118.47 1759.1 112.792 1770.08 108.035C1781.07 103.274 1794.39 99.4079 1809.41 96.3039C1839.45 90.096 1876.41 86.9152 1915.39 85.7665C1916.93 85.7213 1918.46 85.6793 1920 85.6404V87.641C1918.48 87.6795 1916.97 87.721 1915.45 87.7656C1876.52 88.9127 1839.69 92.0881 1809.82 98.2625C1794.88 101.35 1781.7 105.181 1770.88 109.87C1760.05 114.563 1751.64 120.087 1746.15 126.527C1739.38 134.491 1736.95 146.014 1738 160.494C1739.05 174.964 1743.55 192.232 1750.45 211.51C1764.25 250.053 1787.53 296.381 1811.46 344.009L1811.46 344.013L1811.48 344.055C1835.41 391.666 1859.97 440.561 1876.26 484.122C1884.4 505.905 1890.49 526.389 1893.39 544.738C1896.29 563.078 1896.01 579.365 1891.35 592.708C1872.88 645.56 1832.21 678.612 1781.51 698.435C1730.83 718.25 1670.08 724.879 1611.27 724.879C1493.61 724.879 1180.53 670.34 875.523 547.306C753.634 498.139 663.557 483.947 597.778 490.786C532.037 497.621 490.552 525.462 465.752 560.457C412.457 635.659 243.803 753.526 0 740.036Z" fill="url(#paint13_linear_2694_755)"/>
<path fill-rule="evenodd" clip-rule="evenodd" d="M0 723.633V721.627C251.532 741.127 425.584 620.138 479.596 543.925C504.757 508.42 546.783 480.31 613.047 473.421C679.273 466.535 769.696 480.843 891.747 530.075C1196.59 653.042 1509.41 707.503 1626.75 707.503C1685.44 707.503 1745.91 700.882 1796.26 681.196C1846.58 661.519 1886.72 628.821 1904.94 576.673C1909.45 563.766 1909.76 547.85 1906.89 529.674C1904.02 511.508 1897.98 491.164 1889.86 469.447C1873.62 426.008 1849.11 377.215 1825.17 329.577L1825.11 329.447C1801.21 281.886 1777.89 235.468 1764.05 196.809C1757.12 177.461 1752.55 159.996 1751.48 145.262C1750.41 130.539 1752.84 118.39 1760.11 109.855C1765.86 103.094 1774.58 97.4165 1785.56 92.6592C1796.55 87.8981 1809.87 84.0321 1824.89 80.9281C1852.12 75.3001 1885.04 72.1601 1920 70.7666V72.7682C1885.13 74.1609 1852.36 77.2932 1825.29 82.8867C1810.35 85.9738 1797.18 89.8055 1786.35 94.4943C1775.52 99.1869 1767.11 104.712 1761.63 111.151C1754.85 119.115 1752.43 130.638 1753.47 145.118C1754.52 159.588 1759.03 176.857 1765.93 196.134C1779.73 234.677 1803.01 281.006 1826.94 328.633L1826.94 328.637L1826.96 328.679C1850.88 376.29 1875.45 425.186 1891.74 468.746C1899.88 490.529 1905.97 511.013 1908.87 529.362C1911.76 547.703 1911.49 563.99 1906.82 577.333C1888.36 630.184 1847.68 663.236 1796.98 683.059C1746.31 702.874 1685.55 709.503 1626.75 709.503C1509.09 709.503 1196.01 654.964 890.999 531.93C769.11 482.763 679.033 468.571 613.254 475.41C547.512 482.245 506.028 510.086 481.227 545.081C426.812 621.864 252.136 743.124 0 723.633Z" fill="url(#paint14_linear_2694_755)"/>
<path fill-rule="evenodd" clip-rule="evenodd" d="M0 706.892V704.883C259.863 730.701 439.959 606.316 495.071 528.549C520.233 493.044 562.259 464.935 628.523 458.045C694.749 451.159 785.171 465.467 907.222 514.7C1212.06 637.666 1524.88 692.127 1642.22 692.127C1700.91 692.127 1761.39 685.506 1811.73 665.821C1861.68 646.291 1901.59 613.933 1920 562.462V568.15C1900.59 617.409 1861.15 648.646 1812.46 667.683C1761.78 687.498 1701.03 694.127 1642.22 694.127C1524.56 694.127 1211.48 639.588 906.474 516.555C784.585 467.387 694.508 453.195 628.729 460.034C562.988 466.87 521.503 494.71 496.703 529.705C441.181 608.05 260.459 732.698 0 706.892ZM1920 58.1355C1890.94 59.776 1863.79 62.7531 1840.77 67.511C1825.83 70.5981 1812.65 74.4298 1801.83 79.1186C1791 83.8112 1782.59 89.336 1777.11 95.7751C1770.33 103.739 1767.9 115.263 1768.95 129.742C1770 144.212 1774.5 161.481 1781.41 180.759C1795.2 219.301 1818.48 265.63 1842.41 313.258L1842.41 313.261L1842.44 313.303C1866.36 360.915 1890.92 409.81 1907.21 453.371C1912.41 467.278 1916.77 480.655 1920 493.286V501.897C1916.71 487.039 1911.66 470.971 1905.34 454.071C1889.1 410.632 1864.59 361.84 1840.65 314.201L1840.58 314.071C1816.69 266.511 1793.36 220.093 1779.52 181.433C1772.6 162.086 1768.02 144.62 1766.96 129.887C1765.89 115.163 1768.32 103.015 1775.58 94.4789C1781.34 87.7181 1790.05 82.0408 1801.04 77.2835C1812.02 72.5225 1825.34 68.6564 1840.36 65.5524C1863.54 60.7628 1890.83 57.7751 1920 56.1323V58.1355Z" fill="url(#paint15_linear_2694_755)"/>
<path fill-rule="evenodd" clip-rule="evenodd" d="M0 689.816V687.802C268.182 720.252 454.346 592.474 510.546 513.173C535.707 477.668 577.733 449.559 643.997 442.669C710.223 435.784 800.646 450.091 922.697 499.324C1227.54 622.29 1540.36 676.751 1657.7 676.751C1716.39 676.751 1776.86 670.13 1827.21 650.445C1865.97 635.289 1898.69 612.408 1920 578.864V582.537C1898.39 615.099 1865.99 637.43 1827.93 652.308C1777.26 672.122 1716.5 678.751 1657.7 678.751C1540.04 678.751 1226.96 624.213 921.949 501.179C800.06 452.012 709.983 437.819 644.204 444.659C578.463 451.494 536.978 479.334 512.177 514.33C455.563 594.217 268.77 722.248 0 689.816ZM1920 43.7767C1896.79 45.5282 1875.13 48.2327 1856.24 52.1353C1841.3 55.2224 1828.13 59.054 1817.3 63.7429C1806.47 68.4354 1798.06 73.9602 1792.58 80.3994C1785.8 88.3635 1783.38 99.887 1784.42 114.367C1785.47 128.836 1789.98 146.105 1796.88 165.383C1810.68 203.926 1833.96 250.254 1857.89 297.882L1857.89 297.885L1857.91 297.927C1880.55 342.99 1903.77 389.202 1920 430.953V436.536C1903.76 393.643 1879.66 345.676 1856.12 298.825L1856.06 298.696C1832.16 251.135 1808.84 204.717 1795 166.057C1788.07 146.71 1783.5 129.244 1782.43 114.511C1781.36 99.7875 1783.79 87.639 1791.06 79.1032C1796.81 72.3424 1805.53 66.6651 1816.51 61.9077C1827.5 57.1467 1840.82 53.2807 1855.84 50.1767C1874.86 46.2446 1896.66 43.527 1920 41.771V43.7767Z" fill="url(#paint16_linear_2694_755)"/>
<path fill-rule="evenodd" clip-rule="evenodd" d="M0 672.407V670.387C276.49 709.781 468.747 578.615 526.021 497.798C551.183 462.293 593.209 434.183 659.473 427.294C725.699 420.408 816.121 434.716 938.173 483.948C1243.01 606.915 1555.83 661.376 1673.17 661.376C1731.86 661.376 1792.34 654.755 1842.68 635.069C1873.01 623.211 1899.64 606.623 1920 583.898V586.873C1899.59 609.03 1873.23 625.27 1843.41 636.932C1792.73 656.747 1731.98 663.376 1673.17 663.376C1555.51 663.376 1242.43 608.837 937.424 485.803C815.536 436.636 725.458 422.444 659.68 429.283C593.938 436.118 552.454 463.959 527.653 498.954C469.958 580.365 277.069 711.776 0 672.407ZM1920 29.7363C1902.62 31.4352 1886.34 33.7384 1871.72 36.7596C1856.78 39.8468 1843.6 43.6784 1832.78 48.3672C1821.95 53.0598 1813.54 58.5846 1808.06 65.0238C1801.28 72.9879 1798.85 84.5113 1799.9 98.991C1800.95 113.461 1805.45 130.729 1812.36 150.007C1826.15 188.55 1849.43 234.878 1873.36 282.506L1873.36 282.51L1873.39 282.552C1889.55 314.716 1906 347.467 1920 378.763V383.685C1905.65 351.221 1888.48 317.048 1871.6 283.45L1871.53 283.32C1847.64 235.759 1824.31 189.341 1810.47 150.681C1803.55 131.334 1798.97 113.869 1797.91 99.1353C1796.84 84.4118 1799.27 72.2634 1806.53 63.7275C1812.29 56.9667 1821 51.2894 1831.99 46.5321C1842.97 41.7711 1856.29 37.905 1871.31 34.801C1886.07 31.752 1902.49 29.4333 1920 27.7268V29.7363Z" fill="url(#paint17_linear_2694_755)"/>
<path fill-rule="evenodd" clip-rule="evenodd" d="M0 654.668V652.641C284.785 699.29 483.16 564.739 541.497 482.422C566.659 446.917 608.685 418.807 674.948 411.918C741.175 405.032 831.597 419.34 953.648 468.573C1258.49 591.539 1571.31 646 1688.65 646C1747.34 646 1807.81 639.379 1858.16 619.694C1881.31 610.641 1902.3 598.834 1920 583.644V586.268C1902.38 601.093 1881.64 612.658 1858.89 621.556C1808.21 641.371 1747.46 648 1688.65 648C1570.99 648 1257.91 593.461 952.9 470.427C831.011 421.26 740.934 407.068 675.155 413.907C609.414 420.742 567.929 448.583 543.129 483.578C484.366 566.497 285.355 701.284 0 654.668ZM1920 16.0737C1908.38 17.5205 1897.38 19.2777 1887.19 21.3838C1872.25 24.4709 1859.08 28.3025 1848.26 32.9914C1837.42 37.6839 1829.01 43.2087 1823.53 49.6479C1816.75 57.612 1814.33 69.1355 1815.38 83.6151C1816.42 98.0849 1820.93 115.354 1827.83 134.632C1841.63 173.174 1864.91 219.502 1888.84 267.13L1888.84 267.134L1888.86 267.176C1899.37 288.088 1910 309.247 1920 330.093V334.729C1909.5 312.699 1898.22 290.261 1887.07 268.074L1887.01 267.944C1863.11 220.383 1839.79 173.966 1825.95 135.306C1819.02 115.958 1814.45 98.4929 1813.38 83.7595C1812.32 69.036 1814.74 56.8875 1822.01 48.3517C1827.76 41.5909 1836.48 35.9136 1847.46 31.1562C1858.45 26.3952 1871.77 22.5292 1886.79 19.4252C1897.11 17.2924 1908.24 15.5169 1920 14.0583V16.0737Z" fill="url(#paint18_linear_2694_755)"/>
<path fill-rule="evenodd" clip-rule="evenodd" d="M0 636.6V634.566C293.068 688.779 497.585 550.846 556.972 467.046C582.134 431.541 624.16 403.432 690.424 396.542C756.65 389.656 847.073 403.964 969.124 453.197C1273.97 576.163 1586.79 630.624 1704.12 630.624C1762.82 630.624 1823.29 624.003 1873.63 604.318C1890.36 597.779 1905.96 589.801 1920 580.149V582.569C1906.11 591.972 1890.76 599.768 1874.36 606.181C1823.69 625.995 1762.93 632.624 1704.12 632.624C1586.46 632.624 1273.38 578.085 968.376 455.052C846.487 405.884 756.41 391.692 690.631 398.531C624.889 405.367 583.405 433.207 558.604 468.202C498.785 552.612 293.629 690.772 0 636.6ZM1920 2.8725C1914 3.81843 1908.22 4.86156 1902.67 6.0081C1887.73 9.09522 1874.55 12.9268 1863.73 17.6157C1852.9 22.3082 1844.49 27.833 1839.01 34.2722C1832.23 42.2363 1829.8 53.7598 1830.85 68.2394C1831.9 82.7092 1836.41 99.9779 1843.31 119.256C1857.11 157.799 1880.38 204.127 1904.31 251.755L1904.32 251.761L1904.34 251.8C1909.56 262.191 1914.81 272.644 1920 283.088V287.588C1914.23 275.952 1908.38 264.291 1902.55 252.698L1902.48 252.566C1878.59 205.006 1855.26 158.589 1841.42 119.93C1834.5 100.583 1829.92 83.1172 1828.86 68.3838C1827.79 53.6603 1830.22 41.5119 1837.48 32.976C1843.24 26.2152 1851.96 20.5379 1862.94 15.7805C1873.93 11.0195 1887.24 7.1535 1902.26 4.04948C1907.94 2.87645 1913.86 1.81149 1920 0.84791V2.8725Z" fill="url(#paint19_linear_2694_755)"/>
<defs>
<linearGradient id="paint0_linear_2694_755" x1="1920" y1="607.298" x2="-0.00173156" y2="603.494" gradientUnits="userSpaceOnUse">
<stop stop-color="#858FFF"/>
<stop offset="1" stop-color="#9253FE"/>
</linearGradient>
<linearGradient id="paint1_linear_2694_755" x1="1920" y1="591.922" x2="-0.00173156" y2="588.119" gradientUnits="userSpaceOnUse">
<stop stop-color="#858FFF"/>
<stop offset="1" stop-color="#9253FE"/>
</linearGradient>
<linearGradient id="paint2_linear_2694_755" x1="1920" y1="578.025" x2="-0.00180025" y2="574.239" gradientUnits="userSpaceOnUse">
<stop stop-color="#858FFF"/>
<stop offset="1" stop-color="#9253FE"/>
</linearGradient>
<linearGradient id="paint3_linear_2694_755" x1="1920" y1="564.156" x2="-0.0018693" y2="560.387" gradientUnits="userSpaceOnUse">
<stop stop-color="#858FFF"/>
<stop offset="1" stop-color="#9253FE"/>
</linearGradient>
<linearGradient id="paint4_linear_2694_755" x1="1920" y1="550.088" x2="-0.00192843" y2="546.334" gradientUnits="userSpaceOnUse">
<stop stop-color="#858FFF"/>
<stop offset="1" stop-color="#9253FE"/>
</linearGradient>
<linearGradient id="paint5_linear_2694_755" x1="1920" y1="535.823" x2="-0.00197815" y2="532.082" gradientUnits="userSpaceOnUse">
<stop stop-color="#858FFF"/>
<stop offset="1" stop-color="#9253FE"/>
</linearGradient>
<linearGradient id="paint6_linear_2694_755" x1="1920" y1="521.367" x2="-0.0020189" y2="517.637" gradientUnits="userSpaceOnUse">
<stop stop-color="#858FFF"/>
<stop offset="1" stop-color="#9253FE"/>
</linearGradient>
<linearGradient id="paint7_linear_2694_755" x1="1920" y1="506.722" x2="-0.00205105" y2="503" gradientUnits="userSpaceOnUse">
<stop stop-color="#858FFF"/>
<stop offset="1" stop-color="#9253FE"/>
</linearGradient>
<linearGradient id="paint8_linear_2694_755" x1="1920" y1="491.892" x2="-0.00207491" y2="488.176" gradientUnits="userSpaceOnUse">
<stop stop-color="#858FFF"/>
<stop offset="1" stop-color="#9253FE"/>
</linearGradient>
<linearGradient id="paint9_linear_2694_755" x1="1920" y1="476.879" x2="-0.00209071" y2="473.167" gradientUnits="userSpaceOnUse">
<stop stop-color="#858FFF"/>
<stop offset="1" stop-color="#9253FE"/>
</linearGradient>
<linearGradient id="paint10_linear_2694_755" x1="1920" y1="461.686" x2="-0.00209864" y2="457.976" gradientUnits="userSpaceOnUse">
<stop stop-color="#858FFF"/>
<stop offset="1" stop-color="#9253FE"/>
</linearGradient>
<linearGradient id="paint11_linear_2694_755" x1="1920" y1="446.335" x2="-0.00209971" y2="442.625" gradientUnits="userSpaceOnUse">
<stop stop-color="#858FFF"/>
<stop offset="1" stop-color="#9253FE"/>
</linearGradient>
<linearGradient id="paint12_linear_2694_755" x1="1920" y1="431.007" x2="-0.00209759" y2="427.297" gradientUnits="userSpaceOnUse">
<stop stop-color="#858FFF"/>
<stop offset="1" stop-color="#9253FE"/>
</linearGradient>
<linearGradient id="paint13_linear_2694_755" x1="1920" y1="415.775" x2="-0.00209126" y2="412.063" gradientUnits="userSpaceOnUse">
<stop stop-color="#858FFF"/>
<stop offset="1" stop-color="#9253FE"/>
</linearGradient>
<linearGradient id="paint14_linear_2694_755" x1="1920" y1="400.648" x2="-0.00208026" y2="396.934" gradientUnits="userSpaceOnUse">
<stop stop-color="#858FFF"/>
<stop offset="1" stop-color="#9253FE"/>
</linearGradient>
<linearGradient id="paint15_linear_2694_755" x1="1920" y1="385.641" x2="-0.00206396" y2="381.922" gradientUnits="userSpaceOnUse">
<stop stop-color="#858FFF"/>
<stop offset="1" stop-color="#9253FE"/>
</linearGradient>
<linearGradient id="paint16_linear_2694_755" x1="1920" y1="370.768" x2="-0.00204157" y2="367.044" gradientUnits="userSpaceOnUse">
<stop stop-color="#858FFF"/>
<stop offset="1" stop-color="#9253FE"/>
</linearGradient>
<linearGradient id="paint17_linear_2694_755" x1="1920" y1="356.054" x2="-0.00201202" y2="352.321" gradientUnits="userSpaceOnUse">
<stop stop-color="#858FFF"/>
<stop offset="1" stop-color="#9253FE"/>
</linearGradient>
<linearGradient id="paint18_linear_2694_755" x1="1920" y1="341.525" x2="-0.00197386" y2="337.783" gradientUnits="userSpaceOnUse">
<stop stop-color="#858FFF"/>
<stop offset="1" stop-color="#9253FE"/>
</linearGradient>
<linearGradient id="paint19_linear_2694_755" x1="1920" y1="327.224" x2="-0.00192504" y2="323.47" gradientUnits="userSpaceOnUse">
<stop stop-color="#858FFF"/>
<stop offset="1" stop-color="#9253FE"/>
</linearGradient>
</defs>
</svg>
